<svg xmlns="http://www.w3.org/2000/svg" xmlns:xlink="http://www.w3.org/1999/xlink" width="40" height="47" viewBox="0 0 40 47"><defs><path id="co1ta" d="M842.81 917.576a6.967 6.967 0 0 1-6.964-6.97 6.967 6.967 0 0 1 6.964-6.968 6.967 6.967 0 0 1 6.964 6.969 6.967 6.967 0 0 1-6.964 6.969zm13.995-20.751c-3.692-3.745-8.685-5.825-13.99-5.825s-10.298 2.08-13.99 5.773c-3.745 3.744-5.825 8.737-5.825 14.042s2.08 10.245 5.773 13.99l12.846 12.846a1.53 1.53 0 0 0 1.144.468c.468 0 .884-.156 1.144-.468l12.846-12.846c7.801-7.697 7.801-20.283.052-27.98z"/></defs><g><g transform="translate(-823 -891)"><use fill="#74cfb7" xlink:href="#co1ta"/></g></g></svg>